<?xml version="1.0" encoding="UTF-8" standalone="no"?>
<svg
        xmlns:inkscape="http://www.inkscape.org/namespaces/inkscape"
        xmlns:sodipodi="http://sodipodi.sourceforge.net/DTD/sodipodi-0.dtd"
        version="1.1"
        width="24"
        height="24"
        viewBox="0 0 24 24"
        id="svg826"
        sodipodi:docname="flower-add.svg"
        inkscape:version="1.1.1 (c3084ef, 2021-09-22)"
        xmlns="http://www.w3.org/2000/svg"
>
    <defs
            id="defs830"/>
    <sodipodi:namedview
            id="namedview828"
            pagecolor="#505050"
            bordercolor="#eeeeee"
            borderopacity="1"
            inkscape:pageshadow="0"
            inkscape:pageopacity="0"
            inkscape:pagecheckerboard="0"
            showgrid="false"
            inkscape:zoom="17.645833"
            inkscape:cx="6.772137"
            inkscape:cy="17.596222"
            inkscape:window-width="1920"
            inkscape:window-height="1027"
            inkscape:window-x="1440"
            inkscape:window-y="25"
            inkscape:window-maximized="1"
            inkscape:current-layer="svg826"/>
    <path
            id="path824"
            d="M 12 1 A 2.5 2.5 0 0 0 9.5 3.5 L 9.5 3.6894531 C 9.12 3.4094531 8.6296094 3.25 8.0996094 3.25 A 2.5 2.5 0 0 0 5.5996094 5.75 C 5.5996094 6.74 6.1892969 7.6 7.0292969 8 C 6.1892969 8.4 5.5996094 9.25 5.5996094 10.25 A 2.5 2.5 0 0 0 8.0996094 12.75 C 8.6296094 12.75 9.12 12.580547 9.5 12.310547 L 9.5 12.5 A 2.5 2.5 0 0 0 12 15 A 2.5 2.5 0 0 0 12.914062 14.804688 A 5.9858322 5.9858322 0 0 1 14.384766 13.216797 A 2.5 2.5 0 0 0 14.5 12.5 L 14.5 12.310547 C 14.720984 12.467562 14.980101 12.588451 15.261719 12.664062 A 5.9858322 5.9858322 0 0 1 17.666016 12.017578 A 5.9858322 5.9858322 0 0 1 17.667969 12.017578 C 18.120469 11.565078 18.400391 10.94 18.400391 10.25 C 18.400391 9.25 17.810703 8.4 16.970703 8 C 17.810703 7.6 18.400391 6.74 18.400391 5.75 C 18.400391 4.37 17.280391 3.25 15.900391 3.25 C 15.370391 3.25 14.88 3.4094531 14.5 3.6894531 L 14.5 3.5 A 2.5 2.5 0 0 0 12 1 z M 12 5.5 A 2.5 2.5 0 0 1 14.5 8 A 2.5 2.5 0 0 1 12 10.5 A 2.5 2.5 0 0 1 9.5 8 A 2.5 2.5 0 0 1 12 5.5 z M 3 13 A 9 9 0 0 0 12 22 C 12 17 7.97 13 3 13 z M 12 22 A 9 9 0 0 0 13.4375 21.875 A 5.9858322 5.9858322 0 0 1 12.275391 19.767578 C 12.095938 20.480451 12 21.228487 12 22 z M 17 14 L 17 17 L 14 17 L 14 19 L 17 19 L 17 22 L 19 22 L 19 19 L 22 19 L 22 17 L 19 17 L 19 14 L 17 14 z "/>
</svg>
