<?xml version="1.0" encoding="UTF-8"?>
<!-- Created with Inkscape (http://www.inkscape.org/) -->
<svg width="24" height="24" version="1.1" viewBox="0 0 6.35 6.35" xmlns="http://www.w3.org/2000/svg">
 <path d="m5.6508 1.5668c-0.83434 0.023521-1.7184 0.56198-2.2102 1.3467-0.49179 0.78465-0.59111 1.8154-0.24856 2.5766 0.050796-0.0014287 0.1021-0.0053763 0.154-0.011885a1.5875 1.5875 0 0 1-0.17105-0.71572 1.5875 1.5875 0 0 1 1.5875-1.5875 1.5875 1.5875 0 0 1 0.94361 0.31161c0.20929-0.64853 0.19781-1.3575-0.055294-1.9198zm-2.4588-0.70693c-0.38635 0.25754-0.7006 0.65856-0.90382 1.1229 0.30796 0.22929 0.57934 0.51795 0.78652 0.84853 0.045342 0.072344 0.087059 0.14644 0.12609 0.22221 0.037707-0.072768 0.077836-0.14437 0.12144-0.21394 0.20554-0.32795 0.47536-0.61339 0.78083-0.84129-0.20298-0.47104-0.52042-0.87799-0.91106-1.1384zm-2.4593 0.70693c-0.34266 0.76119-0.24277 1.7919 0.24908 2.5766 0.34617 0.55243 1.2548 1.2339 2.0552 1.3348-0.27842-0.67783-0.2409-1.5176 0.078548-2.2448-0.050807-0.10993-0.10773-0.21669-0.17208-0.31936-0.4918-0.78471-1.3764-1.3237-2.2107-1.3472zm4.9558 3.7248a0.39688 0.39688 0 0 1-0.39688 0.39688 0.39688 0.39688 0 0 1-0.39688-0.39688 0.39688 0.39688 0 0 1 0.39688-0.39688 0.39688 0.39688 0 0 1 0.39688 0.39688zm-1.0583-1.0582a0.39688 0.39688 0 0 1-0.39688 0.39688 0.39688 0.39688 0 0 1-0.39688-0.39688 0.39688 0.39688 0 0 1 0.39688-0.39688 0.39688 0.39688 0 0 1 0.39688 0.39688zm-0.80315 1.0904 0.37418 0.37418 1.4967-1.4967-0.37418-0.37418-1.4967 1.4967" fill-rule="evenodd"/>
</svg>
