<?xml version="1.0" encoding="UTF-8" standalone="no"?>
<!-- Created with Inkscape (http://www.inkscape.org/) -->

<svg
   version="1.1"
   id="svg2"
   xml:space="preserve"
   width="24"
   height="24"
   viewBox="0 0 31.99992 31.99992"
   sodipodi:docname="flower-open-close.svg"
   inkscape:version="1.1.2 (1:1.1+202202050950+0a00cf5339)"
   xmlns:inkscape="http://www.inkscape.org/namespaces/inkscape"
   xmlns:sodipodi="http://sodipodi.sourceforge.net/DTD/sodipodi-0.dtd"
   xmlns="http://www.w3.org/2000/svg"
   xmlns:svg="http://www.w3.org/2000/svg"><defs
     id="defs6"><clipPath
       clipPathUnits="userSpaceOnUse"
       id="clipPath16"><path
         d="M 0,24 H 24 V 0 H 0 Z"
         id="path14" /></clipPath><clipPath
       clipPathUnits="userSpaceOnUse"
       id="clipPath24"><path
         d="M 2.00005,22 H 22 V 2.00005 H 2.00005 Z"
         id="path22" /></clipPath><clipPath
       clipPathUnits="userSpaceOnUse"
       id="clipPath40"><path
         d="M 3,21 H 21 V 3 H 3 Z"
         id="path38" /></clipPath><clipPath
       clipPathUnits="userSpaceOnUse"
       id="clipPath56"><path
         d="M 4,22 H 20 V 2 H 4 Z"
         id="path54" /></clipPath><clipPath
       clipPathUnits="userSpaceOnUse"
       id="clipPath72"><path
         d="M 2,20 H 22 V 4 H 2 Z"
         id="path70" /></clipPath><clipPath
       clipPathUnits="userSpaceOnUse"
       id="clipPath88"><path
         d="M 0,24 H 24 V 0 H 0 Z"
         id="path86" /></clipPath><clipPath
       clipPathUnits="userSpaceOnUse"
       id="clipPath98"><path
         d="M 0,48 H 48 V 0 H 0 Z"
         id="path96" /></clipPath><clipPath
       clipPathUnits="userSpaceOnUse"
       id="clipPath106"><path
         d="M 0,24 H 24 V 0 H 0 Z"
         id="path104" /></clipPath><clipPath
       clipPathUnits="userSpaceOnUse"
       id="clipPath114"><path
         d="M -2.13623e-4,24.0002 H 23.9997 V 2.74658e-4 H -2.13623e-4 Z"
         id="path112" /></clipPath><clipPath
       clipPathUnits="userSpaceOnUse"
       id="clipPath118"><path
         d="M -2.13623e-4,47.9998 H 47.9998 V -1.52588e-4 H -2.13623e-4 Z"
         id="path116" /></clipPath><clipPath
       clipPathUnits="userSpaceOnUse"
       id="clipPath122"><path
         d="M 48,48 H 0 V 0 h 48 z"
         id="path120" /></clipPath><clipPath
       clipPathUnits="userSpaceOnUse"
       id="clipPath330"><path
         d="M 0,24 H 24 V 0 H 0 Z"
         id="path328" /></clipPath><clipPath
       clipPathUnits="userSpaceOnUse"
       id="clipPath340"><path
         d="M -2.28882e-4,48.0001 H 47.9998 V 1.2207e-4 H -2.28882e-4 Z"
         id="path338" /></clipPath><clipPath
       clipPathUnits="userSpaceOnUse"
       id="clipPath348"><path
         d="M -2.28882e-4,48.0001 H 47.9998 V 1.2207e-4 H -2.28882e-4 Z"
         id="path346" /></clipPath><clipPath
       clipPathUnits="userSpaceOnUse"
       id="clipPath352"><path
         d="M 0,0 H 48 V 48 H 0 Z"
         id="path350" /></clipPath></defs><sodipodi:namedview
     id="namedview4"
     pagecolor="#ffffff"
     bordercolor="#666666"
     borderopacity="1.0"
     inkscape:pageshadow="2"
     inkscape:pageopacity="0.0"
     inkscape:pagecheckerboard="0"
     showgrid="false"
     width="24px"
     scale-x="1.33333"
     inkscape:snap-intersection-paths="false"
     inkscape:object-nodes="true"
     inkscape:snap-global="true"
     inkscape:zoom="18.114583"
     inkscape:cx="6.8177113"
     inkscape:cy="15.815986"
     inkscape:window-width="2488"
     inkscape:window-height="1016"
     inkscape:window-x="72"
     inkscape:window-y="27"
     inkscape:window-maximized="1"
     inkscape:current-layer="layer3" /><g
     id="g8"
     inkscape:groupmode="layer"
     inkscape:label="ic_system_icon_24px"
     transform="matrix(1.3333333,0,0,-1.3333333,0,32)"
     style="display:none;opacity:0.22266"
     sodipodi:insensitive="true"><g
       id="g10"><g
         id="g12"
         clip-path="url(#clipPath16)"><g
           id="g18"><g
             id="g20" /><g
             id="g32"><g
               clip-path="url(#clipPath24)"
               opacity="0.199997"
               id="g30"><g
                 transform="translate(22,12)"
                 id="g28"><path
                   d="m 0,0 c 0,-5.523 -4.477,-10 -10,-10 -5.523,0 -10,4.477 -10,10 0,5.523 4.477,10 10,10 C -4.477,10 0,5.523 0,0"
                   style="fill:#000000;fill-opacity:1;fill-rule:nonzero;stroke:none"
                   id="path26" /></g></g></g></g><g
           id="g34"><g
             id="g36" /><g
             id="g48"><g
               clip-path="url(#clipPath40)"
               opacity="0.199997"
               id="g46"><g
                 transform="translate(19,3)"
                 id="g44"><path
                   d="m 0,0 h -14 c -1.104,0 -2,0.896 -2,2 v 14 c 0,1.104 0.896,2 2,2 H 0 c 1.104,0 2,-0.896 2,-2 V 2 C 2,0.896 1.104,0 0,0"
                   style="fill:#000000;fill-opacity:1;fill-rule:nonzero;stroke:none"
                   id="path42" /></g></g></g></g><g
           id="g50"><g
             id="g52" /><g
             id="g64"><g
               clip-path="url(#clipPath56)"
               opacity="0.199997"
               id="g62"><g
                 transform="translate(6,2)"
                 id="g60"><path
                   d="m 0,0 h 12 c 1.104,0 2,0.896 2,2 v 16 c 0,1.104 -0.896,2 -2,2 H 0 c -1.104,0 -2,-0.896 -2,-2 V 2 C -2,0.896 -1.104,0 0,0"
                   style="fill:#000000;fill-opacity:1;fill-rule:nonzero;stroke:none"
                   id="path58" /></g></g></g></g><g
           id="g66"><g
             id="g68" /><g
             id="g80"><g
               clip-path="url(#clipPath72)"
               opacity="0.199997"
               id="g78"><g
                 transform="translate(22,6)"
                 id="g76"><path
                   d="m 0,0 v 12 c 0,1.104 -0.896,2 -2,2 h -16 c -1.104,0 -2,-0.896 -2,-2 V 0 c 0,-1.104 0.896,-2 2,-2 h 16 c 1.104,0 2,0.896 2,2"
                   style="fill:#000000;fill-opacity:1;fill-rule:nonzero;stroke:none"
                   id="path74" /></g></g></g></g></g></g><g
       id="g82"><g
         id="g84"
         clip-path="url(#clipPath88)"><g
           id="g90"
           transform="matrix(0.4999976,0,0,-0.4999976,-1.144e-4,24.00008)"><g
             id="g92"><g
               id="g94"
               clip-path="url(#clipPath98)" /></g></g></g></g><g
       id="g100"><g
         id="g102"
         clip-path="url(#clipPath106)"><g
           id="g108"><g
             id="g110" /><g
             id="g322"><g
               clip-path="url(#clipPath114)"
               opacity="0.149994"
               id="g320"><g
                 transform="matrix(0.4999976,0,0,-0.4999976,-1.144e-4,24.00008)"
                 id="g318"><g
                   id="g316"><g
                     clip-path="url(#clipPath118)"
                     id="g314"><g
                       id="g310"><g
                         clip-path="url(#clipPath122)"
                         id="g308"><g
                           transform="translate(1.9998,47.9998)"
                           id="g126"><path
                             d="M 0,0 V -48"
                             style="fill:none;stroke:#000000;stroke-width:0.25;stroke-linecap:butt;stroke-linejoin:miter;stroke-miterlimit:10;stroke-dasharray:none;stroke-opacity:1"
                             id="path124" /></g><g
                           transform="translate(3.9998,47.9998)"
                           id="g130"><path
                             d="M 0,0 V -48"
                             style="fill:none;stroke:#000000;stroke-width:0.25;stroke-linecap:butt;stroke-linejoin:miter;stroke-miterlimit:10;stroke-dasharray:none;stroke-opacity:1"
                             id="path128" /></g><g
                           transform="translate(5.9998,47.9998)"
                           id="g134"><path
                             d="M 0,0 V -48"
                             style="fill:none;stroke:#000000;stroke-width:0.25;stroke-linecap:butt;stroke-linejoin:miter;stroke-miterlimit:10;stroke-dasharray:none;stroke-opacity:1"
                             id="path132" /></g><g
                           transform="translate(7.9998,47.9998)"
                           id="g138"><path
                             d="M 0,0 V -48"
                             style="fill:none;stroke:#000000;stroke-width:0.25;stroke-linecap:butt;stroke-linejoin:miter;stroke-miterlimit:10;stroke-dasharray:none;stroke-opacity:1"
                             id="path136" /></g><g
                           transform="translate(9.9998,47.9998)"
                           id="g142"><path
                             d="M 0,0 V -48"
                             style="fill:none;stroke:#000000;stroke-width:0.25;stroke-linecap:butt;stroke-linejoin:miter;stroke-miterlimit:10;stroke-dasharray:none;stroke-opacity:1"
                             id="path140" /></g><g
                           transform="translate(11.9998,47.9998)"
                           id="g146"><path
                             d="M 0,0 V -48"
                             style="fill:none;stroke:#000000;stroke-width:0.25;stroke-linecap:butt;stroke-linejoin:miter;stroke-miterlimit:10;stroke-dasharray:none;stroke-opacity:1"
                             id="path144" /></g><g
                           transform="translate(13.9998,47.9998)"
                           id="g150"><path
                             d="M 0,0 V -48"
                             style="fill:none;stroke:#000000;stroke-width:0.25;stroke-linecap:butt;stroke-linejoin:miter;stroke-miterlimit:10;stroke-dasharray:none;stroke-opacity:1"
                             id="path148" /></g><g
                           transform="translate(15.9998,47.9998)"
                           id="g154"><path
                             d="M 0,0 V -48"
                             style="fill:none;stroke:#000000;stroke-width:0.25;stroke-linecap:butt;stroke-linejoin:miter;stroke-miterlimit:10;stroke-dasharray:none;stroke-opacity:1"
                             id="path152" /></g><g
                           transform="translate(17.9998,47.9998)"
                           id="g158"><path
                             d="M 0,0 V -48"
                             style="fill:none;stroke:#000000;stroke-width:0.25;stroke-linecap:butt;stroke-linejoin:miter;stroke-miterlimit:10;stroke-dasharray:none;stroke-opacity:1"
                             id="path156" /></g><g
                           transform="translate(19.9998,47.9998)"
                           id="g162"><path
                             d="M 0,0 V -48"
                             style="fill:none;stroke:#000000;stroke-width:0.25;stroke-linecap:butt;stroke-linejoin:miter;stroke-miterlimit:10;stroke-dasharray:none;stroke-opacity:1"
                             id="path160" /></g><g
                           transform="translate(21.9998,47.9998)"
                           id="g166"><path
                             d="M 0,0 V -48"
                             style="fill:none;stroke:#000000;stroke-width:0.25;stroke-linecap:butt;stroke-linejoin:miter;stroke-miterlimit:10;stroke-dasharray:none;stroke-opacity:1"
                             id="path164" /></g><g
                           transform="translate(23.9998,47.9998)"
                           id="g170"><path
                             d="M 0,0 V -48"
                             style="fill:none;stroke:#000000;stroke-width:0.25;stroke-linecap:butt;stroke-linejoin:miter;stroke-miterlimit:10;stroke-dasharray:none;stroke-opacity:1"
                             id="path168" /></g><g
                           transform="translate(25.9998,47.9998)"
                           id="g174"><path
                             d="M 0,0 V -48"
                             style="fill:none;stroke:#000000;stroke-width:0.25;stroke-linecap:butt;stroke-linejoin:miter;stroke-miterlimit:10;stroke-dasharray:none;stroke-opacity:1"
                             id="path172" /></g><g
                           transform="translate(27.9998,47.9998)"
                           id="g178"><path
                             d="M 0,0 V -48"
                             style="fill:none;stroke:#000000;stroke-width:0.25;stroke-linecap:butt;stroke-linejoin:miter;stroke-miterlimit:10;stroke-dasharray:none;stroke-opacity:1"
                             id="path176" /></g><g
                           transform="translate(29.9998,47.9998)"
                           id="g182"><path
                             d="M 0,0 V -48"
                             style="fill:none;stroke:#000000;stroke-width:0.25;stroke-linecap:butt;stroke-linejoin:miter;stroke-miterlimit:10;stroke-dasharray:none;stroke-opacity:1"
                             id="path180" /></g><g
                           transform="translate(31.9998,47.9998)"
                           id="g186"><path
                             d="M 0,0 V -48"
                             style="fill:none;stroke:#000000;stroke-width:0.25;stroke-linecap:butt;stroke-linejoin:miter;stroke-miterlimit:10;stroke-dasharray:none;stroke-opacity:1"
                             id="path184" /></g><g
                           transform="translate(33.9998,47.9998)"
                           id="g190"><path
                             d="M 0,0 V -48"
                             style="fill:none;stroke:#000000;stroke-width:0.25;stroke-linecap:butt;stroke-linejoin:miter;stroke-miterlimit:10;stroke-dasharray:none;stroke-opacity:1"
                             id="path188" /></g><g
                           transform="translate(35.9998,47.9998)"
                           id="g194"><path
                             d="M 0,0 V -48"
                             style="fill:none;stroke:#000000;stroke-width:0.25;stroke-linecap:butt;stroke-linejoin:miter;stroke-miterlimit:10;stroke-dasharray:none;stroke-opacity:1"
                             id="path192" /></g><g
                           transform="translate(37.9998,47.9998)"
                           id="g198"><path
                             d="M 0,0 V -48"
                             style="fill:none;stroke:#000000;stroke-width:0.25;stroke-linecap:butt;stroke-linejoin:miter;stroke-miterlimit:10;stroke-dasharray:none;stroke-opacity:1"
                             id="path196" /></g><g
                           transform="translate(39.9998,47.9998)"
                           id="g202"><path
                             d="M 0,0 V -48"
                             style="fill:none;stroke:#000000;stroke-width:0.25;stroke-linecap:butt;stroke-linejoin:miter;stroke-miterlimit:10;stroke-dasharray:none;stroke-opacity:1"
                             id="path200" /></g><g
                           transform="translate(41.9998,47.9998)"
                           id="g206"><path
                             d="M 0,0 V -48"
                             style="fill:none;stroke:#000000;stroke-width:0.25;stroke-linecap:butt;stroke-linejoin:miter;stroke-miterlimit:10;stroke-dasharray:none;stroke-opacity:1"
                             id="path204" /></g><g
                           transform="translate(43.9998,47.9998)"
                           id="g210"><path
                             d="M 0,0 V -48"
                             style="fill:none;stroke:#000000;stroke-width:0.25;stroke-linecap:butt;stroke-linejoin:miter;stroke-miterlimit:10;stroke-dasharray:none;stroke-opacity:1"
                             id="path208" /></g><g
                           transform="translate(45.9998,47.9998)"
                           id="g214"><path
                             d="M 0,0 V -48"
                             style="fill:none;stroke:#000000;stroke-width:0.25;stroke-linecap:butt;stroke-linejoin:miter;stroke-miterlimit:10;stroke-dasharray:none;stroke-opacity:1"
                             id="path212" /></g><g
                           transform="translate(-2e-4,1.9998)"
                           id="g218"><path
                             d="M 0,0 H 48"
                             style="fill:none;stroke:#000000;stroke-width:0.25;stroke-linecap:butt;stroke-linejoin:miter;stroke-miterlimit:10;stroke-dasharray:none;stroke-opacity:1"
                             id="path216" /></g><g
                           transform="translate(-2e-4,3.9998)"
                           id="g222"><path
                             d="M 0,0 H 48"
                             style="fill:none;stroke:#000000;stroke-width:0.25;stroke-linecap:butt;stroke-linejoin:miter;stroke-miterlimit:10;stroke-dasharray:none;stroke-opacity:1"
                             id="path220" /></g><g
                           transform="translate(-2e-4,5.9998)"
                           id="g226"><path
                             d="M 0,0 H 48"
                             style="fill:none;stroke:#000000;stroke-width:0.25;stroke-linecap:butt;stroke-linejoin:miter;stroke-miterlimit:10;stroke-dasharray:none;stroke-opacity:1"
                             id="path224" /></g><g
                           transform="translate(-2e-4,7.9998)"
                           id="g230"><path
                             d="M 0,0 H 48"
                             style="fill:none;stroke:#000000;stroke-width:0.25;stroke-linecap:butt;stroke-linejoin:miter;stroke-miterlimit:10;stroke-dasharray:none;stroke-opacity:1"
                             id="path228" /></g><g
                           transform="translate(-2e-4,9.9998)"
                           id="g234"><path
                             d="M 0,0 H 48"
                             style="fill:none;stroke:#000000;stroke-width:0.25;stroke-linecap:butt;stroke-linejoin:miter;stroke-miterlimit:10;stroke-dasharray:none;stroke-opacity:1"
                             id="path232" /></g><g
                           transform="translate(-2e-4,11.9998)"
                           id="g238"><path
                             d="M 0,0 H 48"
                             style="fill:none;stroke:#000000;stroke-width:0.25;stroke-linecap:butt;stroke-linejoin:miter;stroke-miterlimit:10;stroke-dasharray:none;stroke-opacity:1"
                             id="path236" /></g><g
                           transform="translate(-2e-4,13.9998)"
                           id="g242"><path
                             d="M 0,0 H 48"
                             style="fill:none;stroke:#000000;stroke-width:0.25;stroke-linecap:butt;stroke-linejoin:miter;stroke-miterlimit:10;stroke-dasharray:none;stroke-opacity:1"
                             id="path240" /></g><g
                           transform="translate(-2e-4,15.9998)"
                           id="g246"><path
                             d="M 0,0 H 48"
                             style="fill:none;stroke:#000000;stroke-width:0.25;stroke-linecap:butt;stroke-linejoin:miter;stroke-miterlimit:10;stroke-dasharray:none;stroke-opacity:1"
                             id="path244" /></g><g
                           transform="translate(-2e-4,17.9998)"
                           id="g250"><path
                             d="M 0,0 H 48"
                             style="fill:none;stroke:#000000;stroke-width:0.25;stroke-linecap:butt;stroke-linejoin:miter;stroke-miterlimit:10;stroke-dasharray:none;stroke-opacity:1"
                             id="path248" /></g><g
                           transform="translate(-2e-4,19.9998)"
                           id="g254"><path
                             d="M 0,0 H 48"
                             style="fill:none;stroke:#000000;stroke-width:0.25;stroke-linecap:butt;stroke-linejoin:miter;stroke-miterlimit:10;stroke-dasharray:none;stroke-opacity:1"
                             id="path252" /></g><g
                           transform="translate(-2e-4,21.9998)"
                           id="g258"><path
                             d="M 0,0 H 48"
                             style="fill:none;stroke:#000000;stroke-width:0.25;stroke-linecap:butt;stroke-linejoin:miter;stroke-miterlimit:10;stroke-dasharray:none;stroke-opacity:1"
                             id="path256" /></g><g
                           transform="translate(-2e-4,23.9998)"
                           id="g262"><path
                             d="M 0,0 H 48"
                             style="fill:none;stroke:#000000;stroke-width:0.25;stroke-linecap:butt;stroke-linejoin:miter;stroke-miterlimit:10;stroke-dasharray:none;stroke-opacity:1"
                             id="path260" /></g><g
                           transform="translate(-2e-4,25.9998)"
                           id="g266"><path
                             d="M 0,0 H 48"
                             style="fill:none;stroke:#000000;stroke-width:0.25;stroke-linecap:butt;stroke-linejoin:miter;stroke-miterlimit:10;stroke-dasharray:none;stroke-opacity:1"
                             id="path264" /></g><g
                           transform="translate(-2e-4,27.9998)"
                           id="g270"><path
                             d="M 0,0 H 48"
                             style="fill:none;stroke:#000000;stroke-width:0.25;stroke-linecap:butt;stroke-linejoin:miter;stroke-miterlimit:10;stroke-dasharray:none;stroke-opacity:1"
                             id="path268" /></g><g
                           transform="translate(-2e-4,29.9998)"
                           id="g274"><path
                             d="M 0,0 H 48"
                             style="fill:none;stroke:#000000;stroke-width:0.25;stroke-linecap:butt;stroke-linejoin:miter;stroke-miterlimit:10;stroke-dasharray:none;stroke-opacity:1"
                             id="path272" /></g><g
                           transform="translate(-2e-4,31.9998)"
                           id="g278"><path
                             d="M 0,0 H 48"
                             style="fill:none;stroke:#000000;stroke-width:0.25;stroke-linecap:butt;stroke-linejoin:miter;stroke-miterlimit:10;stroke-dasharray:none;stroke-opacity:1"
                             id="path276" /></g><g
                           transform="translate(-2e-4,33.9998)"
                           id="g282"><path
                             d="M 0,0 H 48"
                             style="fill:none;stroke:#000000;stroke-width:0.25;stroke-linecap:butt;stroke-linejoin:miter;stroke-miterlimit:10;stroke-dasharray:none;stroke-opacity:1"
                             id="path280" /></g><g
                           transform="translate(-2e-4,35.9998)"
                           id="g286"><path
                             d="M 0,0 H 48"
                             style="fill:none;stroke:#000000;stroke-width:0.25;stroke-linecap:butt;stroke-linejoin:miter;stroke-miterlimit:10;stroke-dasharray:none;stroke-opacity:1"
                             id="path284" /></g><g
                           transform="translate(-2e-4,37.9998)"
                           id="g290"><path
                             d="M 0,0 H 48"
                             style="fill:none;stroke:#000000;stroke-width:0.25;stroke-linecap:butt;stroke-linejoin:miter;stroke-miterlimit:10;stroke-dasharray:none;stroke-opacity:1"
                             id="path288" /></g><g
                           transform="translate(-2e-4,39.9998)"
                           id="g294"><path
                             d="M 0,0 H 48"
                             style="fill:none;stroke:#000000;stroke-width:0.25;stroke-linecap:butt;stroke-linejoin:miter;stroke-miterlimit:10;stroke-dasharray:none;stroke-opacity:1"
                             id="path292" /></g><g
                           transform="translate(-2e-4,41.9998)"
                           id="g298"><path
                             d="M 0,0 H 48"
                             style="fill:none;stroke:#000000;stroke-width:0.25;stroke-linecap:butt;stroke-linejoin:miter;stroke-miterlimit:10;stroke-dasharray:none;stroke-opacity:1"
                             id="path296" /></g><g
                           transform="translate(-2e-4,43.9998)"
                           id="g302"><path
                             d="M 0,0 H 48"
                             style="fill:none;stroke:#000000;stroke-width:0.25;stroke-linecap:butt;stroke-linejoin:miter;stroke-miterlimit:10;stroke-dasharray:none;stroke-opacity:1"
                             id="path300" /></g><g
                           transform="translate(-2e-4,45.9998)"
                           id="g306"><path
                             d="M 0,0 H 48"
                             style="fill:none;stroke:#000000;stroke-width:0.25;stroke-linecap:butt;stroke-linejoin:miter;stroke-miterlimit:10;stroke-dasharray:none;stroke-opacity:1"
                             id="path304" /></g></g></g><path
                       d="M 0,0 H 48 V 48 H 0 Z M 0.25,47.749 H 47.749 V 0.25 H 0.25 Z"
                       style="fill:#000000;fill-opacity:1;fill-rule:nonzero;stroke:none"
                       id="path312" /></g></g></g></g></g></g></g></g><g
       id="g324"><g
         id="g326"
         clip-path="url(#clipPath330)"><g
           id="g332"
           transform="matrix(0.4999976,0,0,-0.4999976,-1.144e-4,24.00008)"><g
             id="g334"><g
               id="g336"
               clip-path="url(#clipPath340)"><g
                 id="g342"><g
                   id="g344" /><g
                   id="g414"><g
                     clip-path="url(#clipPath348)"
                     opacity="0.399994"
                     id="g412"><g
                       id="g410"><g
                         clip-path="url(#clipPath352)"
                         id="g408"><g
                           transform="translate(23.9998,1e-4)"
                           id="g356"><path
                             d="M 0,0 V 48"
                             style="fill:none;stroke:#000000;stroke-width:0.25;stroke-linecap:butt;stroke-linejoin:miter;stroke-miterlimit:10;stroke-dasharray:none;stroke-opacity:1"
                             id="path354" /></g><g
                           transform="translate(47.9998,24.0001)"
                           id="g360"><path
                             d="M 0,0 H -48"
                             style="fill:none;stroke:#000000;stroke-width:0.25;stroke-linecap:butt;stroke-linejoin:miter;stroke-miterlimit:10;stroke-dasharray:none;stroke-opacity:1"
                             id="path358" /></g><g
                           transform="translate(47.9998,16.0001)"
                           id="g364"><path
                             d="M 0,0 H -48"
                             style="fill:none;stroke:#000000;stroke-width:0.25;stroke-linecap:butt;stroke-linejoin:miter;stroke-miterlimit:10;stroke-dasharray:none;stroke-opacity:1"
                             id="path362" /></g><g
                           transform="translate(47.9998,32.0001)"
                           id="g368"><path
                             d="M 0,0 H -48"
                             style="fill:none;stroke:#000000;stroke-width:0.25;stroke-linecap:butt;stroke-linejoin:miter;stroke-miterlimit:10;stroke-dasharray:none;stroke-opacity:1"
                             id="path366" /></g><g
                           transform="translate(31.9998,48.0001)"
                           id="g372"><path
                             d="M 0,0 V -48"
                             style="fill:none;stroke:#000000;stroke-width:0.25;stroke-linecap:butt;stroke-linejoin:miter;stroke-miterlimit:10;stroke-dasharray:none;stroke-opacity:1"
                             id="path370" /></g><g
                           transform="translate(15.9998,48.0001)"
                           id="g376"><path
                             d="M 0,0 V -48"
                             style="fill:none;stroke:#000000;stroke-width:0.25;stroke-linecap:butt;stroke-linejoin:miter;stroke-miterlimit:10;stroke-dasharray:none;stroke-opacity:1"
                             id="path374" /></g><g
                           transform="translate(47.7498,0.2501)"
                           id="g380"><path
                             d="M 0,0 -47.5,47.5"
                             style="fill:none;stroke:#000000;stroke-width:0.25;stroke-linecap:butt;stroke-linejoin:miter;stroke-miterlimit:10;stroke-dasharray:none;stroke-opacity:1"
                             id="path378" /></g><g
                           transform="translate(0.2498,0.2501)"
                           id="g384"><path
                             d="M 0,0 47.5,47.5"
                             style="fill:none;stroke:#000000;stroke-width:0.25;stroke-linecap:butt;stroke-linejoin:miter;stroke-miterlimit:10;stroke-dasharray:none;stroke-opacity:1"
                             id="path382" /></g><g
                           transform="translate(24.0005,13.9999)"
                           id="g388"><path
                             d="m 0,0 c -5.523,0 -10,4.477 -10,10 0,5.522 4.477,10 10,10 C 5.522,20 10,15.522 10,10 10,4.477 5.522,0 0,0 Z"
                             style="fill:none;stroke:#000000;stroke-width:0.25;stroke-linecap:butt;stroke-linejoin:miter;stroke-miterlimit:10;stroke-dasharray:none;stroke-opacity:1"
                             id="path386" /></g><g
                           transform="translate(23.9998,4.0001)"
                           id="g392"><path
                             d="m 0,0 c -11.054,0 -20,8.947 -20,20 0,11.053 8.946,20 20,20 C 11.053,40 20,31.053 20,20 20,8.947 11.053,0 0,0 Z"
                             style="fill:none;stroke:#000000;stroke-width:0.25;stroke-linecap:butt;stroke-linejoin:miter;stroke-miterlimit:10;stroke-dasharray:none;stroke-opacity:1"
                             id="path390" /></g><g
                           transform="translate(37.9998,6.0001)"
                           id="g396"><path
                             d="m 0,0 h -28 c -2.211,0 -4,1.791 -4,4 v 28 c 0,2.209 1.789,4 4,4 H 0 c 2.211,0 4,-1.791 4,-4 V 4 C 4,1.791 2.211,0 0,0 Z"
                             style="fill:none;stroke:#000000;stroke-width:0.25;stroke-linecap:butt;stroke-linejoin:miter;stroke-miterlimit:10;stroke-dasharray:none;stroke-opacity:1"
                             id="path394" /></g><g
                           transform="translate(39.9998,8.0001)"
                           id="g400"><path
                             d="m 0,0 h -32 c -2.209,0 -4,1.791 -4,4 v 24 c 0,2.209 1.791,4 4,4 H 0 c 2.209,0 4,-1.791 4,-4 V 4 C 4,1.791 2.209,0 0,0 Z"
                             style="fill:none;stroke:#000000;stroke-width:0.25;stroke-linecap:butt;stroke-linejoin:miter;stroke-miterlimit:10;stroke-dasharray:none;stroke-opacity:1"
                             id="path398" /></g><g
                           transform="translate(39.9998,40.0001)"
                           id="g404"><path
                             d="m 0,0 v -32 c 0,-2.209 -1.791,-4 -4,-4 h -24 c -2.209,0 -4,1.791 -4,4 V 0 c 0,2.209 1.791,4 4,4 H -4 C -1.791,4 0,2.209 0,0 Z"
                             style="fill:none;stroke:#000000;stroke-width:0.25;stroke-linecap:butt;stroke-linejoin:miter;stroke-miterlimit:10;stroke-dasharray:none;stroke-opacity:1"
                             id="path402" /></g><path
                           d="M 48,0 H 0 V 48 H 48 Z M 47.75,47.75 H 0.25 V 0.25 h 47.5 z"
                           style="fill:#000000;fill-opacity:1;fill-rule:nonzero;stroke:none"
                           id="path406" /></g></g></g></g></g></g></g></g></g></g></g><g
     inkscape:groupmode="layer"
     id="layer3"
     inkscape:label="Open To"
     style="display:inline"><path
       style="fill:#000000;fill-opacity:1;stroke:none;stroke-width:1.33333px;stroke-linecap:butt;stroke-linejoin:miter;stroke-opacity:1"
       d="M 19.285906,26.82836 21.17152,28.713974 28.713974,21.17152 26.82836,19.285906 19.285906,26.82836"
       id="path8599" /><circle
       style="fill:#000000;fill-opacity:1;stroke:none;stroke-width:1.01091;stroke-miterlimit:4;stroke-dasharray:none;stroke-opacity:0.691686"
       id="path9052"
       cx="21.333281"
       cy="21.333281"
       r="1.999995" /><circle
       style="fill:#000000;fill-opacity:1;stroke:none;stroke-width:1.01091;stroke-miterlimit:4;stroke-dasharray:none;stroke-opacity:0.691686"
       id="path9052-3"
       cx="26.666599"
       cy="26.666178"
       r="1.999995" /><path
       id="path441-70-7"
       style="display:inline;fill:#000000;fill-opacity:1;fill-rule:evenodd;stroke:none;stroke-width:0.852831;stroke-miterlimit:4;stroke-dasharray:none;stroke-opacity:1"
       inkscape:transform-center-x="6.1933333"
       inkscape:transform-center-y="-9.8869199"
       d="M 3.692699,7.8958136 C 1.9659015,11.731739 2.4692734,16.925891 4.9479043,20.880156 6.6923665,23.664044 11.27146,27.09835 15.30465,27.606702 13.901596,24.19088 14.090662,19.959161 15.700482,16.29423 15.444448,15.740257 15.15757,15.202241 14.833296,14.684859 12.354958,10.730411 7.8972164,8.0143446 3.692699,7.8958136 Z" /><path
       id="path441-70-6-5"
       style="display:inline;fill:#000000;fill-opacity:1;fill-rule:evenodd;stroke:none;stroke-width:0.852831;stroke-miterlimit:4;stroke-dasharray:none;stroke-opacity:1"
       inkscape:transform-center-x="-0.0028582599"
       inkscape:transform-center-y="-11.666465"
       d="m 16.085897,4.3333225 c -1.946942,1.2978296 -3.530581,3.3187417 -4.554676,5.65884 1.551921,1.1554815 2.919484,2.6101425 3.963532,4.2760315 0.228497,0.364568 0.43872,0.737979 0.635415,1.119789 0.190019,-0.366706 0.392243,-0.727534 0.611978,-1.078123 1.035768,-1.652678 2.395515,-3.091105 3.934885,-4.239573 C 19.65415,7.6965293 18.054471,5.6457939 16.085897,4.3333225 Z" /><path
       id="path441-70-9-9"
       style="display:inline;fill:#000000;fill-opacity:1;fill-rule:evenodd;stroke:none;stroke-width:0.639625;stroke-miterlimit:4;stroke-dasharray:none;stroke-opacity:1"
       inkscape:transform-center-x="-6.1933333"
       inkscape:transform-center-y="-9.8869199"
       d="M 21.357422,5.921875 C 18.204026,6.0107735 14.862664,8.0458753 13.003906,11.011719 11.14519,13.977316 10.76978,17.8732 12.064453,20.75 12.25644,20.7446 12.450354,20.72968 12.646484,20.70508 A 6,6 0 0 1 12,18 a 6,6 0 0 1 6,-6 6,6 0 0 1 3.566406,1.177734 C 22.357423,10.7266 22.314048,8.046933 21.357422,5.921875 Z"
       transform="scale(1.33333)" /></g><g
     inkscape:groupmode="layer"
     id="layer1"
     inkscape:label="Closed"
     style="display:none"><path
       id="path441-70-62"
       style="display:inline;fill:#000000;fill-opacity:1;fill-rule:evenodd;stroke:none;stroke-width:0.639625;stroke-miterlimit:4;stroke-dasharray:none;stroke-opacity:1"
       inkscape:transform-center-x="3.2929584"
       inkscape:transform-center-y="-11.192124"
       d="M 7.1210938,3.9628906 C 5.0971322,6.383163 4.4075426,10.234237 5.3964844,13.591797 6.0652347,15.863456 8.5027897,19.092971 11.185547,20.392578 9.4334956,17.82826 8.9161012,14.207338 9.8652344,10.984375 10.262569,9.6350144 10.915438,8.3652304 11.748047,7.2558594 10.493553,5.6977329 8.866755,4.5060492 7.1210938,3.9628906 Z"
       transform="scale(1.33333)" /><path
       id="path441-70-62-8"
       style="display:inline;fill:#000000;fill-opacity:1;fill-rule:evenodd;stroke:none;stroke-width:0.852831;stroke-miterlimit:4;stroke-dasharray:none;stroke-opacity:1"
       d="m 22.671196,5.2836313 c 2.698609,3.2270218 3.618703,8.3625607 2.300117,12.8392957 -0.988347,3.357286 -4.874446,8.29389 -8.891366,9.54367 -2.698003,-3.226982 -3.618406,-8.362795 -2.300117,-12.839296 1.318254,-4.476832 4.875101,-8.2940178 8.891366,-9.5436697 z"
       sodipodi:nodetypes="ccccc"
       inkscape:transform-center-x="-3.2929586"
       inkscape:transform-center-y="-11.192124" /><path
       id="path441-70-6-6"
       style="display:inline;fill:#000000;fill-opacity:1;fill-rule:evenodd;stroke:none;stroke-width:0.639625;stroke-miterlimit:4;stroke-dasharray:none;stroke-opacity:1"
       inkscape:transform-center-x="-0.0028582599"
       inkscape:transform-center-y="-11.666465"
       d="m 12.064453,3.25 c -0.69996,0.4665928 -1.335597,1.0599534 -1.894531,1.7421875 0.695574,0.5275454 1.336819,1.1497841 1.90625,1.84375 C 12.642585,6.147788 13.280108,5.5313806 13.970703,5.0078125 13.408854,4.3192014 12.76945,3.7200295 12.064453,3.25 Z"
       transform="scale(1.33333)" /></g><g
     inkscape:groupmode="layer"
     id="layer2"
     inkscape:label="Open"
     style="display:none"><path
       id="path441-70"
       style="display:inline;fill:#000000;fill-opacity:1;fill-rule:evenodd;stroke:none;stroke-width:0.639625;stroke-miterlimit:4;stroke-dasharray:none;stroke-opacity:1"
       inkscape:transform-center-x="6.1933333"
       inkscape:transform-center-y="-9.8869199"
       d="m 2.7695312,5.921875 c -1.2951014,2.8769515 -0.9175715,6.772575 0.9414063,9.738281 1.3083499,2.087921 4.7426785,4.663657 7.7675785,5.044922 -1.052293,-2.561873 -0.910493,-5.73567 0.296875,-8.484375 C 11.583365,11.805222 11.368206,11.401709 11.125,11.013672 9.2662419,8.0478285 5.9229271,6.0107735 2.7695312,5.921875 Z"
       transform="scale(1.33333)" /><path
       id="path441-70-6"
       style="display:inline;fill:#000000;fill-opacity:1;fill-rule:evenodd;stroke:none;stroke-width:0.639625;stroke-miterlimit:4;stroke-dasharray:none;stroke-opacity:1"
       inkscape:transform-center-x="-0.0028582599"
       inkscape:transform-center-y="-11.666465"
       d="m 12.064453,3.25 c -1.46021,0.9733746 -2.6479421,2.4890625 -3.4160155,4.2441406 1.1639436,0.8666133 2.1896185,1.9576121 2.9726565,3.2070314 0.171373,0.273427 0.329041,0.553486 0.476562,0.839844 0.142515,-0.27503 0.294183,-0.545652 0.458985,-0.808594 C 13.333469,9.4929103 14.353282,8.4140874 15.507812,7.5527344 14.740649,5.7724114 13.540887,4.234356 12.064453,3.25 Z"
       transform="scale(1.33333)" /><path
       id="path441-70-9"
       style="display:inline;fill:#000000;fill-opacity:1;fill-rule:evenodd;stroke:none;stroke-width:0.852831;stroke-miterlimit:4;stroke-dasharray:none;stroke-opacity:1"
       d="m 28.476873,7.895501 c 1.726798,3.835926 1.225732,9.02912 -1.252899,12.983385 -1.858331,2.965603 -6.933265,6.669234 -11.138447,6.787711 -1.726226,-3.835724 -1.225383,-9.029265 1.252899,-12.983385 2.478338,-3.954448 6.93393,-6.66918 11.138447,-6.787711 z"
       sodipodi:nodetypes="ccccc"
       inkscape:transform-center-x="-6.1933333"
       inkscape:transform-center-y="-9.8869199" /></g></svg>
