<?xml version="1.0" encoding="UTF-8"?>
<!-- Created with Inkscape (http://www.inkscape.org/) -->
<svg width="24" height="24" version="1.1" viewBox="0 0 32 32" xml:space="preserve" xmlns="http://www.w3.org/2000/svg"><defs><clipPath id="clipPath16"><path d="m0 24h24v-24h-24z"/></clipPath><clipPath id="clipPath24"><path d="m2 22h20v-20h-20z"/></clipPath><clipPath id="clipPath40"><path d="m3 21h18v-18h-18z"/></clipPath><clipPath id="clipPath56"><path d="m4 22h16v-20h-16z"/></clipPath><clipPath id="clipPath72"><path d="m2 20h20v-16h-20z"/></clipPath><clipPath id="clipPath88"><path d="m0 24h24v-24h-24z"/></clipPath><clipPath><path d="m0 48h48v-48h-48z"/></clipPath><clipPath id="clipPath106"><path d="m0 24h24v-24h-24z"/></clipPath><clipPath id="clipPath114"><path d="m-2.1362e-4 24h24v-24h-24z"/></clipPath><clipPath id="clipPath118"><path d="m-2.1362e-4 48h48v-48h-48z"/></clipPath><clipPath id="clipPath122"><path d="m48 48h-48v-48h48z"/></clipPath><clipPath id="clipPath330"><path d="m0 24h24v-24h-24z"/></clipPath><clipPath id="clipPath340"><path d="m-2.2888e-4 48h48v-48h-48z"/></clipPath><clipPath id="clipPath348"><path d="m-2.2888e-4 48h48v-48h-48z"/></clipPath><clipPath id="clipPath352"><path d="m0 0h48v48h-48z"/></clipPath></defs><g transform="matrix(1.3333 0 0 -1.3333 0 32)" display="none" opacity=".22266"><g clip-path="url(#clipPath16)"><g clip-path="url(#clipPath24)" opacity=".2"><g transform="translate(22,12)"><path d="m0 0c0-5.523-4.477-10-10-10s-10 4.477-10 10 4.477 10 10 10 10-4.477 10-10"/></g></g><g clip-path="url(#clipPath40)" opacity=".2"><g transform="translate(19,3)"><path d="m0 0h-14c-1.104 0-2 0.896-2 2v14c0 1.104 0.896 2 2 2h14c1.104 0 2-0.896 2-2v-14c0-1.104-0.896-2-2-2"/></g></g><g clip-path="url(#clipPath56)" opacity=".2"><g transform="translate(6,2)"><path d="m0 0h12c1.104 0 2 0.896 2 2v16c0 1.104-0.896 2-2 2h-12c-1.104 0-2-0.896-2-2v-16c0-1.104 0.896-2 2-2"/></g></g><g clip-path="url(#clipPath72)" opacity=".2"><g transform="translate(22,6)"><path d="m0 0v12c0 1.104-0.896 2-2 2h-16c-1.104 0-2-0.896-2-2v-12c0-1.104 0.896-2 2-2h16c1.104 0 2 0.896 2 2"/></g></g></g><g clip-path="url(#clipPath88)"><g transform="matrix(.5 0 0 -.5 -.0001144 24)"/></g><g clip-path="url(#clipPath106)"><g clip-path="url(#clipPath114)" opacity=".14999"><g transform="matrix(.5 0 0 -.5 -.0001144 24)"><g clip-path="url(#clipPath118)"><g clip-path="url(#clipPath122)"><g transform="translate(1.9998 48)"><path d="m0 0v-48" fill="none" stroke="#000" stroke-miterlimit="10" stroke-width=".25"/></g><g transform="translate(3.9998 48)"><path d="m0 0v-48" fill="none" stroke="#000" stroke-miterlimit="10" stroke-width=".25"/></g><g transform="translate(5.9998 48)"><path d="m0 0v-48" fill="none" stroke="#000" stroke-miterlimit="10" stroke-width=".25"/></g><g transform="translate(7.9998 48)"><path d="m0 0v-48" fill="none" stroke="#000" stroke-miterlimit="10" stroke-width=".25"/></g><g transform="translate(9.9998 48)"><path d="m0 0v-48" fill="none" stroke="#000" stroke-miterlimit="10" stroke-width=".25"/></g><g transform="translate(12 48)"><path d="m0 0v-48" fill="none" stroke="#000" stroke-miterlimit="10" stroke-width=".25"/></g><g transform="translate(14 48)"><path d="m0 0v-48" fill="none" stroke="#000" stroke-miterlimit="10" stroke-width=".25"/></g><g transform="translate(16 48)"><path d="m0 0v-48" fill="none" stroke="#000" stroke-miterlimit="10" stroke-width=".25"/></g><g transform="translate(18 48)"><path d="m0 0v-48" fill="none" stroke="#000" stroke-miterlimit="10" stroke-width=".25"/></g><g transform="translate(20 48)"><path d="m0 0v-48" fill="none" stroke="#000" stroke-miterlimit="10" stroke-width=".25"/></g><g transform="translate(22 48)"><path d="m0 0v-48" fill="none" stroke="#000" stroke-miterlimit="10" stroke-width=".25"/></g><g transform="translate(24 48)"><path d="m0 0v-48" fill="none" stroke="#000" stroke-miterlimit="10" stroke-width=".25"/></g><g transform="translate(26 48)"><path d="m0 0v-48" fill="none" stroke="#000" stroke-miterlimit="10" stroke-width=".25"/></g><g transform="translate(28 48)"><path d="m0 0v-48" fill="none" stroke="#000" stroke-miterlimit="10" stroke-width=".25"/></g><g transform="translate(30 48)"><path d="m0 0v-48" fill="none" stroke="#000" stroke-miterlimit="10" stroke-width=".25"/></g><g transform="translate(32 48)"><path d="m0 0v-48" fill="none" stroke="#000" stroke-miterlimit="10" stroke-width=".25"/></g><g transform="translate(34 48)"><path d="m0 0v-48" fill="none" stroke="#000" stroke-miterlimit="10" stroke-width=".25"/></g><g transform="translate(36 48)"><path d="m0 0v-48" fill="none" stroke="#000" stroke-miterlimit="10" stroke-width=".25"/></g><g transform="translate(38 48)"><path d="m0 0v-48" fill="none" stroke="#000" stroke-miterlimit="10" stroke-width=".25"/></g><g transform="translate(40 48)"><path d="m0 0v-48" fill="none" stroke="#000" stroke-miterlimit="10" stroke-width=".25"/></g><g transform="translate(42 48)"><path d="m0 0v-48" fill="none" stroke="#000" stroke-miterlimit="10" stroke-width=".25"/></g><g transform="translate(44 48)"><path d="m0 0v-48" fill="none" stroke="#000" stroke-miterlimit="10" stroke-width=".25"/></g><g transform="translate(46 48)"><path d="m0 0v-48" fill="none" stroke="#000" stroke-miterlimit="10" stroke-width=".25"/></g><g transform="translate(-2e-4,1.9998)"><path d="m0 0h48" fill="none" stroke="#000" stroke-miterlimit="10" stroke-width=".25"/></g><g transform="translate(-2e-4,3.9998)"><path d="m0 0h48" fill="none" stroke="#000" stroke-miterlimit="10" stroke-width=".25"/></g><g transform="translate(-2e-4,5.9998)"><path d="m0 0h48" fill="none" stroke="#000" stroke-miterlimit="10" stroke-width=".25"/></g><g transform="translate(-2e-4,7.9998)"><path d="m0 0h48" fill="none" stroke="#000" stroke-miterlimit="10" stroke-width=".25"/></g><g transform="translate(-2e-4,9.9998)"><path d="m0 0h48" fill="none" stroke="#000" stroke-miterlimit="10" stroke-width=".25"/></g><g transform="translate(-2e-4 12)"><path d="m0 0h48" fill="none" stroke="#000" stroke-miterlimit="10" stroke-width=".25"/></g><g transform="translate(-2e-4 14)"><path d="m0 0h48" fill="none" stroke="#000" stroke-miterlimit="10" stroke-width=".25"/></g><g transform="translate(-2e-4 16)"><path d="m0 0h48" fill="none" stroke="#000" stroke-miterlimit="10" stroke-width=".25"/></g><g transform="translate(-2e-4 18)"><path d="m0 0h48" fill="none" stroke="#000" stroke-miterlimit="10" stroke-width=".25"/></g><g transform="translate(-2e-4 20)"><path d="m0 0h48" fill="none" stroke="#000" stroke-miterlimit="10" stroke-width=".25"/></g><g transform="translate(-2e-4 22)"><path d="m0 0h48" fill="none" stroke="#000" stroke-miterlimit="10" stroke-width=".25"/></g><g transform="translate(-2e-4 24)"><path d="m0 0h48" fill="none" stroke="#000" stroke-miterlimit="10" stroke-width=".25"/></g><g transform="translate(-2e-4 26)"><path d="m0 0h48" fill="none" stroke="#000" stroke-miterlimit="10" stroke-width=".25"/></g><g transform="translate(-2e-4 28)"><path d="m0 0h48" fill="none" stroke="#000" stroke-miterlimit="10" stroke-width=".25"/></g><g transform="translate(-2e-4 30)"><path d="m0 0h48" fill="none" stroke="#000" stroke-miterlimit="10" stroke-width=".25"/></g><g transform="translate(-2e-4 32)"><path d="m0 0h48" fill="none" stroke="#000" stroke-miterlimit="10" stroke-width=".25"/></g><g transform="translate(-2e-4 34)"><path d="m0 0h48" fill="none" stroke="#000" stroke-miterlimit="10" stroke-width=".25"/></g><g transform="translate(-2e-4 36)"><path d="m0 0h48" fill="none" stroke="#000" stroke-miterlimit="10" stroke-width=".25"/></g><g transform="translate(-2e-4 38)"><path d="m0 0h48" fill="none" stroke="#000" stroke-miterlimit="10" stroke-width=".25"/></g><g transform="translate(-2e-4 40)"><path d="m0 0h48" fill="none" stroke="#000" stroke-miterlimit="10" stroke-width=".25"/></g><g transform="translate(-2e-4 42)"><path d="m0 0h48" fill="none" stroke="#000" stroke-miterlimit="10" stroke-width=".25"/></g><g transform="translate(-2e-4 44)"><path d="m0 0h48" fill="none" stroke="#000" stroke-miterlimit="10" stroke-width=".25"/></g><g transform="translate(-2e-4 46)"><path d="m0 0h48" fill="none" stroke="#000" stroke-miterlimit="10" stroke-width=".25"/></g></g><path d="m0 0h48v48h-48zm0.25 47.749h47.499v-47.499h-47.499z"/></g></g></g></g><g clip-path="url(#clipPath330)"><g transform="matrix(.5 0 0 -.5 -.0001144 24)"><g clip-path="url(#clipPath340)"><g clip-path="url(#clipPath348)" opacity=".39999"><g clip-path="url(#clipPath352)"><g transform="translate(24 1e-4)"><path d="m0 0v48" fill="none" stroke="#000" stroke-miterlimit="10" stroke-width=".25"/></g><g transform="translate(48 24)"><path d="m0 0h-48" fill="none" stroke="#000" stroke-miterlimit="10" stroke-width=".25"/></g><g transform="translate(48 16)"><path d="m0 0h-48" fill="none" stroke="#000" stroke-miterlimit="10" stroke-width=".25"/></g><g transform="translate(48 32)"><path d="m0 0h-48" fill="none" stroke="#000" stroke-miterlimit="10" stroke-width=".25"/></g><g transform="translate(32 48)"><path d="m0 0v-48" fill="none" stroke="#000" stroke-miterlimit="10" stroke-width=".25"/></g><g transform="translate(16 48)"><path d="m0 0v-48" fill="none" stroke="#000" stroke-miterlimit="10" stroke-width=".25"/></g><g transform="translate(47.75 .2501)"><path d="m0 0-47.5 47.5" fill="none" stroke="#000" stroke-miterlimit="10" stroke-width=".25"/></g><g transform="translate(.2498 .2501)"><path d="m0 0 47.5 47.5" fill="none" stroke="#000" stroke-miterlimit="10" stroke-width=".25"/></g><g transform="translate(24 14)"><path d="m0 0c-5.523 0-10 4.477-10 10 0 5.522 4.477 10 10 10 5.522 0 10-4.478 10-10 0-5.523-4.478-10-10-10z" fill="none" stroke="#000" stroke-miterlimit="10" stroke-width=".25"/></g><g transform="translate(24 4.0001)"><path d="m0 0c-11.054 0-20 8.947-20 20s8.946 20 20 20c11.053 0 20-8.947 20-20s-8.947-20-20-20z" fill="none" stroke="#000" stroke-miterlimit="10" stroke-width=".25"/></g><g transform="translate(38 6.0001)"><path d="m0 0h-28c-2.211 0-4 1.791-4 4v28c0 2.209 1.789 4 4 4h28c2.211 0 4-1.791 4-4v-28c0-2.209-1.789-4-4-4z" fill="none" stroke="#000" stroke-miterlimit="10" stroke-width=".25"/></g><g transform="translate(40 8.0001)"><path d="m0 0h-32c-2.209 0-4 1.791-4 4v24c0 2.209 1.791 4 4 4h32c2.209 0 4-1.791 4-4v-24c0-2.209-1.791-4-4-4z" fill="none" stroke="#000" stroke-miterlimit="10" stroke-width=".25"/></g><g transform="translate(40 40)"><path d="m0 0v-32c0-2.209-1.791-4-4-4h-24c-2.209 0-4 1.791-4 4v32c0 2.209 1.791 4 4 4h24c2.209 0 4-1.791 4-4z" fill="none" stroke="#000" stroke-miterlimit="10" stroke-width=".25"/></g><path d="m48 0h-48v48h48zm-0.25 47.75h-47.5v-47.5h47.5z"/></g></g></g></g></g></g><g display="none"><path d="m19.286 26.828 1.8856 1.8856 7.5425-7.5425-1.8856-1.8856-7.5425 7.5425"/><circle cx="21.333" cy="21.333" r="2"/><circle cx="26.667" cy="26.666" r="2"/><g fill-rule="evenodd"><path d="m3.6927 7.8958c-1.7268 3.8359-1.2234 9.0301 1.2552 12.984 1.7445 2.7839 6.3236 6.2182 10.357 6.7265-1.4031-3.4158-1.214-7.6475 0.39583-11.312-0.25603-0.55397-0.54291-1.092-0.86719-1.6094-2.4783-3.9544-6.9361-6.6705-11.141-6.789z" display="inline"/><path d="m16.086 4.3333c-1.9469 1.2978-3.5306 3.3187-4.5547 5.6588 1.5519 1.1555 2.9195 2.6101 3.9635 4.276 0.2285 0.36457 0.43872 0.73798 0.63542 1.1198 0.19002-0.36671 0.39224-0.72753 0.61198-1.0781 1.0358-1.6527 2.3955-3.0911 3.9349-4.2396-1.0229-2.3738-2.6226-4.4245-4.5911-5.737z" display="inline"/><path transform="scale(1.3333)" d="m21.357 5.9219c-3.1534 0.088898-6.4948 2.124-8.3535 5.0898-1.8587 2.9656-2.2341 6.8615-0.93945 9.7383 0.19199-0.0054 0.3859-0.02032 0.58203-0.04492a6 6 0 0 1-0.64648-2.7051 6 6 0 0 1 6-6 6 6 0 0 1 3.5664 1.1777c0.79102-2.4511 0.74764-5.1308-0.20898-7.2559z" display="inline"/></g></g><g display="none" fill-rule="evenodd"><path transform="scale(1.3333)" d="m7.1211 3.9629c-2.024 2.4203-2.7136 6.2713-1.7246 9.6289 0.66875 2.2717 3.1063 5.5012 5.7891 6.8008-1.7521-2.5643-2.2694-6.1852-1.3203-9.4082 0.39733-1.3494 1.0502-2.6191 1.8828-3.7285-1.2545-1.5581-2.8813-2.7498-4.627-3.293z" display="inline"/><path d="m22.671 5.2836c2.6986 3.227 3.6187 8.3626 2.3001 12.839-0.98835 3.3573-4.8744 8.2939-8.8914 9.5437-2.698-3.227-3.6184-8.3628-2.3001-12.839 1.3183-4.4768 4.8751-8.294 8.8914-9.5437z" display="inline"/><path transform="scale(1.3333)" d="m12.064 3.25c-0.69996 0.46659-1.3356 1.06-1.8945 1.7422 0.69557 0.52755 1.3368 1.1498 1.9062 1.8438 0.56641-0.68815 1.2039-1.3046 1.8945-1.8281-0.56185-0.68861-1.2013-1.2878-1.9062-1.7578z" display="inline"/></g><g fill-rule="evenodd"><path transform="scale(1.3333)" d="m2.7695 5.9219c-1.2951 2.877-0.91757 6.7726 0.94141 9.7383 1.3083 2.0879 4.7427 4.6637 7.7676 5.0449-1.0523-2.5619-0.91049-5.7357 0.29688-8.4844-0.19203-0.41548-0.40718-0.81899-0.65039-1.207-1.8588-2.9658-5.2021-5.0029-8.3555-5.0918z"/><path transform="scale(1.3333)" d="m12.064 3.25c-1.4602 0.97337-2.6479 2.4891-3.416 4.2441 1.1639 0.86661 2.1896 1.9576 2.9727 3.207 0.17137 0.27343 0.32904 0.55349 0.47656 0.83984 0.14252-0.27503 0.29418-0.54565 0.45898-0.80859 0.77683-1.2395 1.7966-2.3183 2.9512-3.1797-0.76716-1.7803-1.9669-3.3184-3.4434-4.3027z"/><path d="m28.477 7.8955c1.7268 3.8359 1.2257 9.0291-1.2529 12.983-1.8583 2.9656-6.9333 6.6692-11.138 6.7877-1.7262-3.8357-1.2254-9.0293 1.2529-12.983 2.4783-3.9544 6.9339-6.6692 11.138-6.7877z"/></g></svg>
